<svg width="11" height="12" viewBox="0 0 11 12" fill="none" xmlns="http://www.w3.org/2000/svg">
<path fill-rule="evenodd" clip-rule="evenodd" d="M5.06335 1.0028C3.90052 1.0028 2.95785 1.94546 2.95785 3.1083C2.95785 4.27113 3.90052 5.21379 5.06335 5.21379C6.22618 5.21379 7.16885 4.27113 7.16885 3.1083C7.16885 1.94546 6.22618 1.0028 5.06335 1.0028ZM1.95505 3.1083C1.95505 1.39163 3.34668 0 5.06335 0C6.78001 0 8.17165 1.39163 8.17165 3.1083C8.17165 4.10566 7.7019 4.99332 6.97158 5.56208C7.58421 5.79391 8.14899 6.13774 8.62943 6.58123C9.58537 7.46363 10.1269 8.69236 10.1269 9.95245C10.1269 10.1779 9.82075 10.4215 9.77333 10.452C8.65793 11.1691 7.19028 11.7006 5.06361 11.7006C2.93709 11.7006 1.46951 11.1791 0.354136 10.462C0.207242 10.3675 0 10.1781 0 9.95245C0 8.69236 0.54157 7.46363 1.49751 6.58123C1.97791 6.13778 2.54263 5.79397 3.1552 5.56214C2.42483 4.99338 1.95505 4.1057 1.95505 3.1083ZM1.01305 9.68848C1.95927 10.268 3.21455 10.7206 5.06361 10.7206C6.91249 10.7206 8.16771 10.268 9.11389 9.68864C9.04545 8.80664 8.6361 7.9521 7.94925 7.31809C7.19024 6.61746 6.1528 6.21764 5.06347 6.21764C3.97414 6.21764 2.9367 6.61746 2.17769 7.31809C1.49088 7.95206 1.08154 8.80653 1.01305 9.68848Z" fill="white"/>
</svg>
