<svg width="14" height="14" viewBox="0 0 14 14" fill="none" xmlns="http://www.w3.org/2000/svg">
<path fill-rule="evenodd" clip-rule="evenodd" d="M8.61432 0.538568C8.61432 0.241099 8.85542 0 9.15289 0H14V4.84712C14 5.14458 13.7589 5.38568 13.4614 5.38568C13.164 5.38568 12.9229 5.14458 12.9229 4.84712V1.83867L8.45652 6.30502C8.35132 6.41022 8.21362 6.46282 8.07575 6.46282C7.93787 6.46282 7.80018 6.41022 7.69498 6.30502C7.48458 6.0948 7.48458 5.75371 7.69498 5.54348L12.1613 1.07714H9.15289C8.85542 1.07714 8.61432 0.836038 8.61432 0.538568ZM11.3099 14.0086H1.61571C0.724734 14.0086 0 13.2837 0 12.3929V2.6987C0 1.8079 0.724734 1.08299 1.61571 1.08299H5.92425C6.22172 1.08299 6.46282 1.32409 6.46282 1.62156C6.46282 1.91903 6.22172 2.16013 5.92425 2.16013H1.61571C1.31877 2.16013 1.07714 2.40177 1.07714 2.6987V12.3929C1.07714 12.6899 1.31877 12.9315 1.61571 12.9315H11.3099C11.6069 12.9315 11.8485 12.6899 11.8485 12.3929V8.08438C11.8485 7.78691 12.0896 7.54581 12.3871 7.54581C12.6845 7.54581 12.9256 7.78691 12.9256 8.08438V12.3929C12.9256 13.2837 12.2009 14.0086 11.3099 14.0086Z" fill="#3E5CE2"/>
</svg>
