<svg width="19" height="20" viewBox="0 0 19 20" fill="none" xmlns="http://www.w3.org/2000/svg">
<path fill-rule="evenodd" clip-rule="evenodd" d="M0.75 0C0.335786 0 0 0.335786 0 0.75V18.75C0 19.1642 0.335786 19.5 0.75 19.5H6.08988C6.5041 19.5 6.83988 19.1642 6.83988 18.75V15.4536H11.4155V18.75C11.4155 19.1642 11.7513 19.5 12.1655 19.5H17.5054C17.9196 19.5 18.2554 19.1642 18.2554 18.75V0.75C18.2554 0.335786 17.9196 0 17.5054 0H0.75ZM1.5 18V1.5H16.7554V18H12.9155V14.7036C12.9155 14.2894 12.5797 13.9536 12.1655 13.9536H6.08988C5.67567 13.9536 5.33988 14.2894 5.33988 14.7036V18H1.5ZM4.66162 5.45391C4.66162 5.06731 4.97502 4.75391 5.36162 4.75391H7.36661C7.75321 4.75391 8.06661 5.06731 8.06661 5.45391C8.06661 5.84051 7.75321 6.15391 7.36661 6.15391H5.36162C4.97502 6.15391 4.66162 5.84051 4.66162 5.45391ZM10.1909 5.45391C10.1909 5.06731 10.5043 4.75391 10.8909 4.75391H12.8949C13.2815 4.75391 13.5949 5.06731 13.5949 5.45391C13.5949 5.84051 13.2815 6.15391 12.8949 6.15391H10.8909C10.5043 6.15391 10.1909 5.84051 10.1909 5.45391ZM5.36211 9.07031C4.97551 9.07031 4.66211 9.38371 4.66211 9.77031C4.66211 10.1569 4.97551 10.4703 5.36211 10.4703H7.36709C7.75369 10.4703 8.06709 10.1569 8.06709 9.77031C8.06709 9.38371 7.75369 9.07031 7.36709 9.07031H5.36211ZM10.1909 9.77031C10.1909 9.38371 10.5043 9.07031 10.8909 9.07031H12.8949C13.2815 9.07031 13.5949 9.38371 13.5949 9.77031C13.5949 10.1569 13.2815 10.4703 12.8949 10.4703H10.8909C10.5043 10.4703 10.1909 10.1569 10.1909 9.77031Z" fill="#747C92"/>
</svg>
