<svg width="22" height="20" viewBox="0 0 22 20" fill="none" xmlns="http://www.w3.org/2000/svg">
<path fill-rule="evenodd" clip-rule="evenodd" d="M2.43458 0.231416C2.12608 -0.077115 1.62588 -0.0771421 1.31735 0.231355C1.00882 0.539853 1.0088 1.04005 1.31729 1.34858L4.24739 4.279C2.55508 5.71318 1.14528 7.4545 0.0938871 9.41386C-0.0274836 9.64005 -0.0313936 9.9111 0.0834026 10.1407L0.79 9.7874C0.0834026 10.1407 0.0840556 10.142 0.0840556 10.142L0.0850485 10.144L0.0880527 10.1499L0.0981275 10.1696C0.106648 10.1862 0.118775 10.2096 0.134482 10.2393C0.165891 10.2986 0.211648 10.3833 0.27154 10.4898C0.391264 10.7027 0.567825 11.003 0.799546 11.3618C1.26201 12.0779 1.94932 13.0346 2.84908 13.9944C4.63421 15.8985 7.34939 17.9108 10.8733 17.9108L10.8862 17.9106C12.7924 17.8795 14.6452 17.3054 16.2299 16.2628L19.3153 19.3486C19.6238 19.6571 20.124 19.6571 20.4326 19.3486C20.7411 19.0401 20.7411 18.5399 20.4326 18.2314L16.9058 14.7042C16.8965 14.6938 16.8869 14.6837 16.8769 14.6738L13.3784 11.1753L13.3728 11.1697L9.49095 7.28779L9.48556 7.2824L5.98695 3.78378L5.97202 3.76924L2.43458 0.231416ZM1.69127 9.79037C2.64564 8.11874 3.89133 6.63211 5.36873 5.40046L7.85971 7.89171C7.74922 8.05737 7.65263 8.23245 7.57119 8.41523C7.37771 8.84947 7.27367 9.31822 7.26529 9.79354C7.2569 10.2689 7.34434 10.741 7.52238 11.1818C7.70042 11.6226 7.96543 12.023 8.30158 12.3592C8.63773 12.6953 9.03815 12.9603 9.47894 13.1383C9.91973 13.3164 10.3919 13.4038 10.8672 13.3954C11.3425 13.3871 11.8113 13.283 12.2455 13.0895C12.4282 13.0081 12.6031 12.9116 12.7687 12.8012L15.0846 15.1174C13.8149 15.8839 12.3605 16.3052 10.8669 16.3307C7.97717 16.3283 5.6529 14.675 4.00175 12.9137C3.18277 12.0402 2.55237 11.1636 2.12681 10.5046C1.94129 10.2174 1.79569 9.97303 1.69127 9.79037ZM9.01441 9.05828L9.01805 9.05018L11.6104 11.6428L11.6024 11.6463C11.362 11.7534 11.1025 11.811 10.8393 11.8157C10.5761 11.8203 10.3147 11.7719 10.0707 11.6733C9.82662 11.5748 9.60492 11.428 9.41881 11.2419C9.23269 11.0558 9.08596 10.8341 8.98739 10.5901C8.88881 10.346 8.8404 10.0846 8.84504 9.82142C8.84968 9.55825 8.90729 9.29871 9.01441 9.05828ZM9.12838 3.44327C9.69973 3.30953 10.2847 3.24268 10.8715 3.24406L10.8733 3.24406C13.7661 3.24406 16.0925 4.89851 17.7449 6.66104C18.5639 7.53463 19.1943 8.41123 19.6199 9.07016C19.8056 9.35779 19.9514 9.60241 20.0558 9.78515C19.5695 10.6404 19.006 11.4497 18.3722 12.2029C18.0913 12.5368 18.1342 13.0351 18.468 13.316C18.8019 13.5969 19.3002 13.554 19.5811 13.2202C20.3765 12.275 21.071 11.2493 21.6534 10.1598C21.7742 9.93383 21.7779 9.66329 21.6633 9.4341L21.277 9.62721C21.6631 9.43377 21.6626 9.43279 21.6626 9.43279L21.6616 9.43082L21.6586 9.42487L21.6485 9.40515C21.64 9.38858 21.6279 9.36522 21.6122 9.33554C21.5808 9.27619 21.535 9.19146 21.4751 9.08499C21.3554 8.87214 21.1788 8.57176 20.9471 8.21297C20.4847 7.4969 19.7974 6.54017 18.8976 5.58042C17.1126 3.67645 14.3977 1.66441 10.8743 1.66406C10.1653 1.66247 9.45857 1.74328 8.76828 1.90485C8.34346 2.00429 8.07969 2.42929 8.17912 2.85411C8.27856 3.27894 8.70356 3.54271 9.12838 3.44327ZM20.0645 9.76992C20.0616 9.775 20.0587 9.78008 20.0558 9.78515C20.0592 9.79115 20.0626 9.79707 20.066 9.80293C20.065 9.79298 20.0645 9.78288 20.0645 9.77266L20.0645 9.76992Z" fill="#3E5CE2"/>
</svg>
