<svg width="22" height="20" viewBox="0 0 22 20" fill="none" xmlns="http://www.w3.org/2000/svg">
<path fill-rule="evenodd" clip-rule="evenodd" d="M0.25 1C0.25 0.585786 0.585786 0.25 1 0.25H21C21.4142 0.25 21.75 0.585786 21.75 1V13.96C21.75 14.3742 21.4142 14.71 21 14.71H11.2835L5.78182 19.5625C5.56071 19.7575 5.24586 19.8049 4.97715 19.6836C4.70844 19.5623 4.53571 19.2948 4.53571 19V14.71H1C0.585786 14.71 0.25 14.3742 0.25 13.96V1ZM1.75 1.75V13.21H5.28571C5.69993 13.21 6.03571 13.5458 6.03571 13.96V17.3385L10.5039 13.3975C10.6409 13.2767 10.8173 13.21 11 13.21H20.25V1.75H1.75Z" fill="#747C92"/>
</svg>
