<svg width="13" height="12" viewBox="0 0 13 12" fill="none" xmlns="http://www.w3.org/2000/svg">
<path fill-rule="evenodd" clip-rule="evenodd" d="M6.261 3.73902C6.69129 4.16932 7.4585 4.72596 9.67713 4.72596C9.76166 4.72596 10 4.73664 10 4.99939C10 5.26428 9.76166 5.27252 9.67713 5.27252C7.45852 5.27252 6.69129 5.83008 6.261 6.26129C5.8307 6.69189 5.27314 7.45941 5.27314 9.67773C5.27314 9.76258 5.2643 10 4.99939 10C4.73693 10 4.72656 9.76258 4.72656 9.67773C4.72656 7.45941 4.16871 6.69189 3.7384 6.26131C3.30689 5.8307 2.53967 5.27254 0.322266 5.27254C0.237422 5.27254 0 5.26307 0 5.00031C0 4.73572 0.237422 4.72596 0.322266 4.72596C2.53967 4.72596 3.30688 4.16932 3.7384 3.73902C4.16869 3.30689 4.72656 2.5409 4.72656 0.322578C4.72656 0.238047 4.73693 0 4.99939 0C5.2643 0 5.27314 0.238047 5.27314 0.322578C5.27314 2.5409 5.8307 3.30689 6.261 3.73902ZM9.644 7.90049C9.92565 8.18213 10.4278 8.54648 11.88 8.54648C11.9353 8.54648 12.0914 8.55347 12.0914 8.72546C12.0914 8.89883 11.9353 8.90423 11.88 8.90423C10.4278 8.90423 9.92565 9.26918 9.644 9.55142C9.36236 9.83327 8.99741 10.3357 8.99741 11.7876C8.99741 11.8432 8.99162 11.9986 8.81823 11.9986C8.64644 11.9986 8.63965 11.8432 8.63965 11.7876C8.63965 10.3357 8.27451 9.83327 7.99285 9.55144C7.71041 9.26959 7.20823 8.90424 5.75684 8.90424C5.7013 8.90424 5.5459 8.89804 5.5459 8.72606C5.5459 8.55287 5.7013 8.54648 5.75684 8.54648C7.20823 8.54648 7.7104 8.18213 7.99285 7.90049C8.2745 7.61764 8.63965 7.11626 8.63965 5.66427C8.63965 5.60894 8.64644 5.45312 8.81823 5.45312C8.99162 5.45312 8.99741 5.60894 8.99741 5.66427C8.99741 7.11626 9.36236 7.61764 9.644 7.90049Z" fill="url(#paint0_linear_2206_15428)"/>
<defs>
<linearGradient id="paint0_linear_2206_15428" x1="3" y1="9.5" x2="12" y2="6" gradientUnits="userSpaceOnUse">
<stop stop-color="#3E5CE2"/>
<stop offset="1" stop-color="#BD83E0"/>
</linearGradient>
</defs>
</svg>
