<svg width="22" height="16" viewBox="0 0 22 16" fill="none" xmlns="http://www.w3.org/2000/svg">
<path fill-rule="evenodd" clip-rule="evenodd" d="M0.22798 0.0797693L10.5 9.90514L20.8545 0.00082787C21.1192 0.0136659 21.3298 0.232347 21.3298 0.500232V1.73254L11.2534 11.3709C10.832 11.774 10.1679 11.774 9.74653 11.3709L0 2.04812V15.4994C0 15.7755 0.223857 15.9994 0.499999 15.9994H20.83C21.0769 15.9994 21.2819 15.8205 21.3227 15.5852C21.3274 15.5576 21.3298 15.5292 21.3298 15.5002V1.73254V0.500232C21.3298 0.232588 21.1197 0.0131966 20.8553 0L20.8545 0.00082787C20.8463 0.000432155 20.8381 0.000232003 20.8298 0.000232003H0.499849C0.399802 0.000232003 0.306141 0.0291603 0.22798 0.0797693Z" fill="#3E5CE2"/>
</svg>
