<svg width="24" height="17" viewBox="0 0 24 17" fill="none" xmlns="http://www.w3.org/2000/svg">
<path fill-rule="evenodd" clip-rule="evenodd" d="M0.74707 0.5C0.74707 0.223858 0.970928 0 1.24707 0H21.5771C21.8532 0 22.0771 0.223858 22.0771 0.5V7C22.0771 7 22.0406 7.73289 21.2688 7.73289C20.4971 7.73289 20.4971 7 20.4971 7V3.61957L12.2471 10C11.8285 10.3897 11.18 10.3897 10.7614 10L2.32707 3.61957V14.42H13.2471C13.2471 14.42 13.8992 14.4348 13.8992 15.1522C13.8992 15.8696 13.2471 16 13.2471 16H1.24707C0.970927 16 0.74707 15.7761 0.74707 15.5V0.5ZM2.45528 1.58L11.5043 8.53275L20.3689 1.58H2.45528ZM17.3074 9.43905C16.998 9.12969 16.4965 9.12969 16.1871 9.43905C15.8777 9.74841 15.8777 10.25 16.1871 10.5593L18.627 12.9992L16.1871 15.439C15.8777 15.7484 15.8777 16.25 16.1871 16.5593C16.4965 16.8687 16.998 16.8687 17.3074 16.5593L19.7472 14.1195L22.1871 16.5593C22.4965 16.8687 22.998 16.8687 23.3074 16.5593C23.6167 16.25 23.6167 15.7484 23.3074 15.439L20.8675 12.9992L23.3074 10.5593C23.6167 10.25 23.6167 9.74841 23.3074 9.43905C22.998 9.12969 22.4965 9.12969 22.1871 9.43905L19.7472 11.8789L17.3074 9.43905Z" fill="#3E5CE2"/>
</svg>
