<svg width="17" height="17" viewBox="0 0 17 17" fill="none" xmlns="http://www.w3.org/2000/svg">
<path fill-rule="evenodd" clip-rule="evenodd" d="M8.5 0.875C8.91421 0.875 9.25 1.21079 9.25 1.625V9.14767L11.8586 6.53911C12.1515 6.24622 12.6263 6.24622 12.9192 6.53911C13.2121 6.83201 13.2121 7.30688 12.9192 7.59977L9.03033 11.4887C8.73744 11.7816 8.26256 11.7816 7.96967 11.4887L4.08078 7.59977C3.78789 7.30688 3.78789 6.83201 4.08078 6.53911C4.37367 6.24622 4.84855 6.24622 5.14144 6.53911L7.75 9.14767V1.625C7.75 1.21079 8.08579 0.875 8.5 0.875ZM1.5 10.2083C1.91421 10.2083 2.25 10.5441 2.25 10.9583V14.0694C2.25 14.2776 2.25419 14.4581 2.28105 14.6116C2.30172 14.7298 2.32726 14.7782 2.3344 14.7906C2.3468 14.7977 2.39522 14.8233 2.51338 14.844C2.6669 14.8708 2.84744 14.875 3.05556 14.875H13.9444C14.1526 14.875 14.3331 14.8708 14.4866 14.844C14.6048 14.8233 14.6532 14.7977 14.6656 14.7906C14.6727 14.7782 14.6983 14.7298 14.719 14.6116C14.7458 14.4581 14.75 14.2776 14.75 14.0694V10.9583C14.75 10.5441 15.0858 10.2083 15.5 10.2083C15.9142 10.2083 16.25 10.5441 16.25 10.9583V14.0694C16.25 14.2739 16.2484 14.5736 16.1965 14.8701C16.146 15.1585 16.0318 15.5472 15.727 15.852C15.4222 16.1568 15.0335 16.271 14.7451 16.3215C14.4486 16.3734 14.1489 16.375 13.9444 16.375H3.05556C2.85111 16.375 2.55141 16.3734 2.25488 16.3215C1.96646 16.271 1.57777 16.1568 1.273 15.852C0.968239 15.5472 0.853952 15.1585 0.803492 14.8701C0.751613 14.5736 0.75 14.2739 0.75 14.0694V10.9583C0.75 10.5441 1.08579 10.2083 1.5 10.2083Z" fill="white"/>
</svg>
