<svg width="18" height="18" viewBox="0 0 18 18" fill="none" xmlns="http://www.w3.org/2000/svg">
<path d="M5 7.76925C5.20633 7.76925 5.38617 7.69267 5.5395 7.5395C5.69267 7.38617 5.76925 7.20633 5.76925 7C5.76925 6.79367 5.69267 6.61383 5.5395 6.4605C5.38617 6.30733 5.20633 6.23075 5 6.23075C4.79367 6.23075 4.61383 6.30733 4.4605 6.4605C4.30733 6.61383 4.23075 6.79367 4.23075 7C4.23075 7.20633 4.30733 7.38617 4.4605 7.5395C4.61383 7.69267 4.79367 7.76925 5 7.76925ZM9 7.76925C9.20633 7.76925 9.38617 7.69267 9.5395 7.5395C9.69267 7.38617 9.76925 7.20633 9.76925 7C9.76925 6.79367 9.69267 6.61383 9.5395 6.4605C9.38617 6.30733 9.20633 6.23075 9 6.23075C8.79367 6.23075 8.61383 6.30733 8.4605 6.4605C8.30733 6.61383 8.23075 6.79367 8.23075 7C8.23075 7.20633 8.30733 7.38617 8.4605 7.5395C8.61383 7.69267 8.79367 7.76925 9 7.76925ZM13 7.76925C13.2063 7.76925 13.3862 7.69267 13.5395 7.5395C13.6927 7.38617 13.7693 7.20633 13.7693 7C13.7693 6.79367 13.6927 6.61383 13.5395 6.4605C13.3862 6.30733 13.2063 6.23075 13 6.23075C12.7937 6.23075 12.6138 6.30733 12.4605 6.4605C12.3073 6.61383 12.2308 6.79367 12.2308 7C12.2308 7.20633 12.3073 7.38617 12.4605 7.5395C12.6138 7.69267 12.7937 7.76925 13 7.76925ZM0 17.077V1.6155C0 1.15517 0.154167 0.770833 0.4625 0.4625C0.770833 0.154167 1.15517 0 1.6155 0H16.3845C16.8448 0 17.2292 0.154167 17.5375 0.4625C17.8458 0.770833 18 1.15517 18 1.6155V12.3845C18 12.8448 17.8458 13.2292 17.5375 13.5375C17.2292 13.8458 16.8448 14 16.3845 14H3.077L0 17.077ZM2.65 13H16.3845C16.5385 13 16.6796 12.9359 16.8078 12.8078C16.9359 12.6796 17 12.5385 17 12.3845V1.6155C17 1.4615 16.9359 1.32042 16.8078 1.19225C16.6796 1.06408 16.5385 1 16.3845 1H1.6155C1.4615 1 1.32042 1.06408 1.19225 1.19225C1.06408 1.32042 1 1.4615 1 1.6155V14.6443L2.65 13Z" fill="#3E5CE2"/>
</svg>
