<svg width="20" height="20" viewBox="0 0 20 20" fill="none" xmlns="http://www.w3.org/2000/svg">
<path fill-rule="evenodd" clip-rule="evenodd" d="M13.0498 2.25H6.5498V0.5C6.5498 0.223858 6.32595 0 6.0498 0H5.5498C5.27366 0 5.0498 0.223858 5.0498 0.5V2.25H0.75C0.335786 2.25 0 2.58579 0 3V8V19C0 19.4142 0.335786 19.75 0.75 19.75H18.75C19.1642 19.75 19.5 19.4142 19.5 19V8V3C19.5 2.58579 19.1642 2.25 18.75 2.25H14.5498V0.5C14.5498 0.223858 14.3259 0 14.0498 0H13.5498C13.2737 0 13.0498 0.223858 13.0498 0.5V2.25ZM18 8.75H1.5V18.25H18V8.75ZM18 7.25V3.75H1.5V7.25H18Z" fill="#747C92"/>
</svg>
