<svg width="20" height="20" viewBox="0 0 20 20" fill="none" xmlns="http://www.w3.org/2000/svg">
<path fill-rule="evenodd" clip-rule="evenodd" d="M13.2998 2.25H6.7998V0.5C6.7998 0.223858 6.57595 0 6.2998 0H5.7998C5.52366 0 5.2998 0.223858 5.2998 0.5V2.25H1C0.585786 2.25 0.25 2.58579 0.25 3V8V19C0.25 19.4142 0.585786 19.75 1 19.75H19C19.4142 19.75 19.75 19.4142 19.75 19V8V3C19.75 2.58579 19.4142 2.25 19 2.25H14.7998V0.5C14.7998 0.223858 14.5759 0 14.2998 0H13.7998C13.5237 0 13.2998 0.223858 13.2998 0.5V2.25ZM18.25 7.25V3.75H1.75V7.25H18.25Z" fill="#3E5CE2"/>
</svg>
