<svg width="19" height="20" viewBox="0 0 19 20" fill="none" xmlns="http://www.w3.org/2000/svg">
<path fill-rule="evenodd" clip-rule="evenodd" d="M1 0.25C0.585786 0.25 0.25 0.585786 0.25 1V19C0.25 19.4142 0.585786 19.75 1 19.75H6.33988C6.7541 19.75 7.08988 19.4142 7.08988 19V15.7036H11.6655V19C11.6655 19.4142 12.0013 19.75 12.4155 19.75H17.7554C18.1696 19.75 18.5054 19.4142 18.5054 19V1C18.5054 0.585786 18.1696 0.25 17.7554 0.25H1ZM4.91182 5.70508C4.91182 5.31848 5.22522 5.00508 5.61182 5.00508H7.6168C8.0034 5.00508 8.3168 5.31848 8.3168 5.70508C8.3168 6.09168 8.0034 6.40508 7.6168 6.40508H5.61182C5.22522 6.40508 4.91182 6.09168 4.91182 5.70508ZM10.4411 5.70505C10.4411 5.31845 10.7545 5.00505 11.1411 5.00505H13.1451C13.5317 5.00505 13.8451 5.31845 13.8451 5.70505C13.8451 6.09165 13.5317 6.40505 13.1451 6.40505H11.1411C10.7545 6.40505 10.4411 6.09165 10.4411 5.70505ZM4.91184 10.0213C4.91184 9.63474 5.22524 9.32134 5.61184 9.32134H7.61683C8.00343 9.32134 8.31683 9.63474 8.31683 10.0213C8.31683 10.4079 8.00343 10.7213 7.61683 10.7213H5.61184C5.22524 10.7213 4.91184 10.4079 4.91184 10.0213ZM10.4411 10.0213C10.4411 9.63474 10.7545 9.32134 11.1411 9.32134H13.1451C13.5317 9.32134 13.8451 9.63474 13.8451 10.0213C13.8451 10.4079 13.5317 10.7213 13.1451 10.7213H11.1411C10.7545 10.7213 10.4411 10.4079 10.4411 10.0213Z" fill="#3E5CE2"/>
</svg>
