<svg width="4" height="14" viewBox="0 0 4 14" fill="none" xmlns="http://www.w3.org/2000/svg">
<path fill-rule="evenodd" clip-rule="evenodd" d="M0.930176 1.9993C0.930176 1.2993 1.50018 0.729297 2.20018 0.729297C2.91018 0.729297 3.48018 1.2993 3.48018 1.9993C3.48018 2.7093 2.91018 3.2793 2.20018 3.2793C1.50018 3.2793 0.930176 2.7093 0.930176 1.9993ZM0.930176 6.9993C0.930176 6.2993 1.50018 5.7293 2.20018 5.7293C2.91018 5.7293 3.48018 6.2993 3.48018 6.9993C3.48018 7.7093 2.91018 8.2793 2.20018 8.2793C1.50018 8.2793 0.930176 7.7093 0.930176 6.9993ZM2.20018 10.7293C1.50018 10.7293 0.930176 11.2993 0.930176 11.9993C0.930176 12.7093 1.50018 13.2793 2.20018 13.2793C2.91018 13.2793 3.48018 12.7093 3.48018 11.9993C3.48018 11.2993 2.91018 10.7293 2.20018 10.7293Z" fill="#3E5CE2"/>
</svg>
