<svg width="14" height="12" viewBox="0 0 14 12" fill="none" xmlns="http://www.w3.org/2000/svg">
<path d="M11.1688 11.3093C10.5509 11.3093 10.0287 11.096 9.60205 10.6693C9.17543 10.2427 8.96211 9.72047 8.96211 9.10259C8.96211 8.48459 9.17543 7.96228 9.60205 7.53565C10.0287 7.10903 10.5509 6.89572 11.1688 6.89572C11.7867 6.89572 12.3089 7.10903 12.7356 7.53565C13.1622 7.96228 13.3755 8.48459 13.3755 9.10259C13.3755 9.72047 13.1622 10.2427 12.7356 10.6693C12.3089 11.096 11.7867 11.3093 11.1688 11.3093ZM11.1673 10.5593C11.5692 10.5593 11.9127 10.4172 12.1978 10.1331C12.4829 9.84897 12.6255 9.5059 12.6255 9.1039C12.6255 8.70203 12.4834 8.35853 12.1993 8.0734C11.9152 7.78828 11.5722 7.64572 11.1703 7.64572C10.7683 7.64572 10.4247 7.78778 10.1396 8.0719C9.85461 8.35603 9.71211 8.69909 9.71211 9.10109C9.71211 9.50297 9.85418 9.84647 10.1383 10.1316C10.4224 10.4167 10.7654 10.5593 11.1673 10.5593ZM1.75049 9.47759V8.72759H7.17355V9.47759H1.75049ZM2.83218 5.13622C2.2143 5.13622 1.69205 4.92291 1.26543 4.49628C0.838801 4.06966 0.625488 3.54734 0.625488 2.92934C0.625488 2.31147 0.838801 1.78922 1.26543 1.36259C1.69205 0.935969 2.2143 0.722656 2.83218 0.722656C3.45005 0.722656 3.9723 0.935969 4.39893 1.36259C4.82555 1.78922 5.03886 2.31147 5.03886 2.92934C5.03886 3.54734 4.82555 4.06966 4.39893 4.49628C3.9723 4.92291 3.45005 5.13622 2.83218 5.13622ZM2.83068 4.38622C3.23268 4.38622 3.57624 4.24415 3.86136 3.96003C4.14636 3.6759 4.28886 3.33284 4.28886 2.93084C4.28886 2.52897 4.1468 2.18547 3.86268 1.90034C3.57855 1.61522 3.23555 1.47266 2.83368 1.47266C2.4318 1.47266 2.0883 1.61472 1.80318 1.89884C1.51805 2.18297 1.37549 2.52603 1.37549 2.92803C1.37549 3.32991 1.51755 3.67341 1.80168 3.95853C2.0858 4.24366 2.4288 4.38622 2.83068 4.38622ZM6.82743 3.30434V2.55434H12.2505V3.30434H6.82743Z" fill="#3E5CE2"/>
</svg>
