<svg width="14" height="16" viewBox="0 0 14 16" fill="none" xmlns="http://www.w3.org/2000/svg">
<path d="M9.81487 4.81787L9.81484 4.81786V4.82023C9.81484 6.39557 8.58485 7.70456 7.00001 7.70456C5.46597 7.70456 4.18519 6.44758 4.18519 4.82023C4.18519 3.19198 5.46685 1.88209 7.05256 1.88209C8.58526 1.88209 9.86614 3.19097 9.81487 4.81787ZM1.30681 15.0622L1.31596 15.0646H1.32541H1.32572H1.32603H1.32633H1.32664H1.32694H1.32724H1.32754H1.32784H1.32814H1.32843H1.32873H1.32902H1.32932H1.32961H1.3299H1.33019H1.33048H1.33077H1.33105H1.33134H1.33162H1.33191H1.33219H1.33247H1.33275H1.33303H1.33331H1.33358H1.33386H1.33413H1.33441H1.33468H1.33495H1.33522H1.33549H1.33576H1.33603H1.33629H1.33656H1.33682H1.33708H1.33735H1.33761H1.33787H1.33813H1.33839H1.33864H1.3389H1.33915H1.33941H1.33966H1.33991H1.34017H1.34042H1.34066H1.34091H1.34116H1.34141H1.34165H1.3419H1.34214H1.34238H1.34263H1.34287H1.34311H1.34335H1.34359H1.34382H1.34406H1.3443H1.34453H1.34476H1.345H1.34523H1.34546H1.34569H1.34592H1.34615H1.34638H1.34661H1.34683H1.34706H1.34728H1.34751H1.34773H1.34795H1.34817H1.34839H1.34861H1.34883H1.34905H1.34927H1.34949H1.3497H1.34992H1.35013H1.35035H1.35056H1.35077H1.35098H1.35119H1.3514H1.35161H1.35182H1.35203H1.35224H1.35244H1.35265H1.35285H1.35306H1.35326H1.35347H1.35367H1.35387H1.35407H1.35427H1.35447H1.35467H1.35487H1.35507H1.35526H1.35546H1.35566H1.35585H1.35605H1.35624H1.35643H1.35663H1.35682H1.35701H1.3572H1.35739H1.35758H1.35777H1.35796H1.35815H1.35833H1.35852H1.35871H1.35889H1.35908H1.35926H1.35945H1.35963H1.35982H1.36H1.36018H1.36036H1.36054H1.36072H1.3609H1.36108H1.36126H1.36144H1.36162H1.3618H1.36197H1.36215H1.36233H1.3625H1.36268H1.36285H1.36303H1.3632H1.36338H1.36355H1.36372H1.36389H1.36407H1.36424H1.36441H1.36458H1.36475H1.36492H1.36509H1.36526H1.36543H1.3656H1.36577H1.36593H1.3661H1.36627H1.36643H1.3666H1.36677H1.36693H1.3671H1.36726H1.36743H1.36759H1.36776H1.36792H1.36808H1.36825H1.36841H1.36857H1.36873H1.3689H1.36906H1.36922H1.36938H1.36954H1.3697H1.36986H1.37002H1.37018H1.37034H1.3705H1.37066H1.37082H1.37098H1.37114H1.3713H1.37145H1.37161H1.37177H1.37193H1.37209H1.37224H1.3724H1.37256H1.37271H1.37287H1.37303H1.37318H1.37334H1.3735H1.37365H1.37381H1.37396H1.37412H1.37427H1.37443H1.37458H1.37474H1.37489H1.37505H1.3752H1.37536H1.37551H1.37567H1.37582H1.37598H1.37613H1.37629H1.37644H1.37659H1.37675H1.3769H1.37706H1.37721H1.37736H1.37752H1.37767H1.37783H1.37798H1.37813H1.37829H1.37844H1.3786H1.37875H1.3789H1.37906H1.37921H1.37937H1.37952H1.37968H1.37983H1.37998H1.38014H1.38029H1.38045H1.3806H1.38076H1.38091H1.38107H1.38122H1.38138H1.38153H1.38169H1.38184H1.382H1.38215H1.38231H1.38247H1.38262H1.38278H1.38293H1.38309H1.38325H1.3834H1.38356H1.38372H1.38387H1.38403H1.38419H1.38435H1.38451H1.38466H1.38482H1.38498H1.38514H1.3853H1.38546H1.38562H1.38578H1.38594H1.3861H1.38626H1.38642H1.38658H1.38674H1.3869H1.38706H1.38723H1.38739H1.38755H1.38771H1.38788H1.38804H1.3882H1.38837H1.38853H1.3887H1.38886H1.38903H1.38919H1.38936H1.38953H1.38969H1.38986H1.39003H1.39019H1.39036H1.39053H1.3907H1.39087H1.39104H1.39121H1.39138H1.39155H1.39172H1.39189H1.39206H1.39224H1.39241H1.39258H1.39276H1.39293H1.39311H1.39328H1.39346H1.39363H1.39381H1.39398H1.39416H1.39434H1.39452H1.3947H1.39488H1.39506H1.39524H1.39542H1.3956H1.39578H1.39596H1.39614H1.39633H1.39651H1.39669H1.39688H1.39706H1.39725H1.39744H1.39762H1.39781H1.398H1.39819H1.39838H1.39857H1.39876H1.39895H1.39914H1.39933H1.39953H1.39972H1.39991H1.40011H1.4003H1.4005H1.40069H1.40089H1.40109H1.40129H1.40149H1.40169H1.40189H1.40209H1.40229H1.40249H1.40269H1.4029H1.4031H1.40331H1.40351H1.40372H1.40393H1.40414H1.40434H1.40455H1.40476H1.40497H1.40519H1.4054H1.40561H1.40582H1.40604H1.40625H1.40647H1.40669H1.4069H1.40712H1.40734H1.40756H1.40778H1.408H1.40823H1.40845H1.40867H1.4089H1.40912H1.40935H1.40958H1.40981H1.41003H1.41026H1.41049H1.41073H1.41096H1.41119H1.41142H1.41166H1.4119H1.41213H1.41237H1.41261H1.41285H1.41309H1.41333H1.41357H1.41381H1.41406H1.4143H1.41455H1.41479H1.41504H1.41529H1.41554H1.41579H1.41604H1.41629H1.41655H1.4168H1.41706H1.41731H1.41757H1.41783H1.41809H1.41835H1.41861H1.41887H1.41913H1.4194H1.41966H1.41993H1.42019H1.42046H1.42073H1.421H1.42127H1.42155H1.42182H1.42209H1.42237H1.42265H1.42292H1.4232H1.42348H1.42376H1.42405H1.42433H1.42461H1.4249H1.42518H1.42547H1.42576H1.42605H1.42634H1.42663H1.42693H1.42722H1.42752H1.42781H1.42811H1.42841H1.42871H1.42901H1.42931H1.42962H1.42992H1.43023H1.43054H1.4306C1.52477 15.0646 1.62469 15.0326 1.69437 14.9613C1.76382 14.8902 1.79488 14.7884 1.77007 14.6666C2.08323 13.2464 2.95853 12.2717 3.96569 11.6502C4.97813 11.0255 6.12037 10.7601 6.94747 10.7601C9.07728 10.7601 11.6119 12.1439 12.1282 14.6817L12.1281 14.6817L12.1288 14.6846C12.1886 14.9293 12.4325 15.129 12.6932 15.0622C12.9349 15.0003 13.1258 14.751 13.0631 14.4894C12.4758 11.4326 9.54693 9.80298 7 9.80298C4.5576 9.80298 1.57713 11.4329 0.937022 14.4888C0.873884 14.7507 1.06481 15.0002 1.30681 15.0622ZM3.2996 4.82023C3.2996 6.90389 4.95964 8.66165 7.05256 8.66165C9.09226 8.66165 10.8055 6.90459 10.8055 4.82023C10.8055 2.68346 9.14615 0.925 7.05256 0.925C5.01218 0.925 3.2996 2.68277 3.2996 4.82023Z" fill="#1B1B1B" stroke="#1B1B1B" stroke-width="0.15"/>
</svg>
