<svg width="20" height="14" viewBox="0 0 20 14" fill="none" xmlns="http://www.w3.org/2000/svg">
<path d="M19.7281 4.95549L10.2042 0.0564453C10.0681 -0.0188151 9.93206 -0.0188151 9.79599 0.0564453L0.272134 4.95549C0.136067 5.03075 0 5.257 0 5.40775C0 5.48301 0 5.5585 0 5.5585C0 5.63376 0 5.63376 0 5.70925V8.27183C0 8.57333 0.203995 8.87484 0.544267 8.87484C0.884539 8.87484 1.08853 8.64882 1.08853 8.27183V6.3122L3.80961 7.74426V11.362C3.80961 11.5128 3.87753 11.6635 4.0136 11.8143C4.08153 11.8895 6.32653 14 10.1361 14C13.8776 14 16.1225 11.8896 16.2586 11.8143C16.3946 11.7389 16.4625 11.5883 16.4625 11.362V7.74426L19.7279 5.93539C19.9319 5.86013 20 5.63389 20 5.40787C20 5.18186 19.8639 5.03111 19.7279 4.95562L19.7281 4.95549ZM15.2382 11.0605C14.6939 11.5127 12.7892 12.794 10.0001 12.794C7.21093 12.794 5.30619 11.4373 4.76196 11.0605V8.27178L9.79599 10.8344C9.86392 10.8344 9.93206 10.9096 9.99999 10.9096C10.0679 10.9096 10.1361 10.9096 10.204 10.8344L15.238 8.27178V11.0605H15.2382ZM10.0001 9.70382L1.70071 5.40773L10.0001 1.11163L18.2994 5.40773L10.0001 9.70382ZM0.544325 9.10085C0.272191 9.10085 5.7179e-05 9.32687 5.7179e-05 9.70386V9.77913C5.7179e-05 10.0806 0.204053 10.3821 0.544325 10.3821C0.884597 10.3821 1.08859 10.1561 1.08859 9.77913V9.62837C1.02066 9.32686 0.816458 9.10085 0.544325 9.10085Z" fill="#667085"/>
</svg>
