<svg width="24" height="24" viewBox="0 0 24 24" fill="none" xmlns="http://www.w3.org/2000/svg">
<path d="M20.6483 19.9487L17.0131 16.3179C18.3686 14.8 19.2106 12.7897 19.2106 10.5949C19.2106 5.85641 15.3495 2 10.6053 2C5.86109 2 2 5.85641 2 10.5949C2 15.3333 5.86109 19.1897 10.6053 19.1897C12.2894 19.1897 13.8503 18.6974 15.1647 17.8769L18.9436 21.6513C19.1695 21.8769 19.4776 22 19.7857 22C20.0937 22 20.4018 21.8769 20.6277 21.6513C21.1206 21.1795 21.1206 20.4205 20.6483 19.9487ZM4.40291 10.5949C4.40291 7.18974 7.1755 4.4 10.6053 4.4C14.0351 4.4 16.7872 7.18974 16.7872 10.5949C16.7872 14 14.0146 16.7897 10.6053 16.7897C7.19604 16.7897 4.40291 14.0205 4.40291 10.5949Z" fill="#667085"/>
</svg>
