<?xml version="1.0" encoding="utf-8"?>
<!-- Generator: Adobe Illustrator 21.0.2, SVG Export Plug-In . SVG Version: 6.00 Build 0)  -->
<svg version="1.1" id="レイヤー_1" xmlns="http://www.w3.org/2000/svg" xmlns:xlink="http://www.w3.org/1999/xlink" preserveAspectRatio="none" x="0px"
	 y="0px" viewBox="0 0 465.3 80.9" style="enable-background:new 0 0 465.3 80.9;" xml:space="preserve">
<style type="text/css">
	.st0{fill:#3F3A2E;}
	.st1{fill:#0C3484;}
	.st2{fill:#17B1E6;}
</style>
<g>
	<g>
		<path class="st0" d="M377.8,33.4c0,13.4-4.2,19-7.8,21.4v8.8c4.6-1.6,16-8,16-29.5V21.6h-8.3V33.4z"/>
		<rect x="218" y="21.6" class="st0" width="22.4" height="7.2"/>
		<polygon class="st0" points="193.6,29.1 206.9,29.1 206.9,21.6 172,21.6 172,29.1 185.1,29.1 185.1,55.7 168.5,55.7 168.5,63.6 
			210.3,63.6 210.3,55.7 193.6,55.7 		"/>
		<path class="st0" d="M272.6,38.2c-2.3,0-4.2,1.9-4.2,4.2c0,2.3,1.9,4.2,4.2,4.2c2.3,0,4.2-1.9,4.2-4.2
			C276.8,40.1,274.9,38.2,272.6,38.2z"/>
		<rect x="284.6" y="21.6" class="st0" width="20.8" height="5.9"/>
		<rect x="284.6" y="31" class="st0" width="20.8" height="6.4"/>
		<path class="st0" d="M320.1,31.3c0.1,7.2-1.9,13-6.1,17.2c-6.4,6.5-15.6,7.2-19.3,7.2h-9.4v7.9h10.5c15,0,32-9.3,31.3-32.3H320.1z
			"/>
		<rect x="320.1" y="20.8" class="st0" width="4.6" height="7"/>
		<rect x="326.7" y="20.8" class="st0" width="4.2" height="7.1"/>
		<path class="st0" d="M346.2,35.5l-0.8-5.7h-6.8l0.8,5.7h-6.9v6.4h7.8l3.1,21.7h6.8l-3.1-21.7h11.8c-0.9,3.2-2.9,6-6.8,8.1l2.7,5.9
			c8.9-4.6,12.2-11.8,11.9-20.3H346.2z"/>
		<path class="st0" d="M408.5,33.4v-2.6c-2.7-1-4.6-3.6-4.6-6.7c0-0.9,0.2-1.8,0.5-2.5h-4.2v12.5c0,21.5,11.4,27.9,16,29.5v-9
			C412.4,51.8,408.5,46.8,408.5,33.4z"/>
		<path class="st0" d="M411,29.3c2.9,0,5.2-2.3,5.2-5.2c0-2.8-2.3-5.2-5.2-5.2c-2.9,0-5.2,2.3-5.2,5.2C405.8,27,408.1,29.3,411,29.3
			z M411,21.7c1.4,0,2.5,1.1,2.5,2.5c0,1.4-1.1,2.5-2.5,2.5c-1.4,0-2.5-1.1-2.5-2.5C408.5,22.8,409.6,21.7,411,21.7z"/>
		<path class="st0" d="M253,28.6c0.2,5.5-1.7,14-7.5,20.2c-4.4,4.6-10.4,6.9-17.9,6.9h-8.9v7.9h11.4c22,0,30.8-20.4,29.9-35
			L253,28.6z"/>
		<rect x="423.3" y="21.6" class="st0" width="22.4" height="7.2"/>
		<path class="st0" d="M458.3,28.6c0.2,5.5-1.6,14-7.5,20.2c-4.4,4.6-10.4,6.9-17.9,6.9H424v7.9h11.4c22,0,30.8-20.4,29.9-35
			L458.3,28.6z"/>
	</g>
	<g>
		<g>
			<path class="st1" d="M40.5,0C18.1,0,0,18.1,0,40.4c0,22.3,18.1,40.4,40.5,40.4c22.3,0,40.4-18.1,40.4-40.4
				C80.9,18.1,62.8,0,40.5,0z M61.3,43.2H30.7c0.3,7,3.9,10.3,10.4,10.3c4.7,0,8.4-2.7,9.2-5.2h10.3c-3.3,9.6-10.3,13.6-19.8,13.6
				c-13.4,0-21.6-8.8-21.6-21.3c0-12.1,8.8-21.4,21.6-21.4C55.2,19.2,62.1,30.7,61.3,43.2z M31,36.1h18.5c-1.1-5.9-3.8-8.4-9-8.4
				C33.3,27.8,31.1,33,31,36.1z"/>
			<path class="st2" d="M144.6,40.4c0,22.3-18.1,40.4-40.4,40.4c-22.3,0-40.5-18.1-40.5-40.4C63.8,18.1,81.9,0,104.2,0
				C126.5,0,144.6,18.1,144.6,40.4z M108.5,21.4c-4.5,0-9,2-11.7,6h-0.2v-5h-10v36.2h11v-19c0-7,2.2-9.9,7.7-9.9
				c4.5,0,6.3,2.4,6.3,8.4v20.4h11V36.3C122.5,27.4,119.7,21.4,108.5,21.4z"/>
		</g>
	</g>
</g>
</svg>
