<svg width="24" height="24" viewBox="0 0 24 24" fill="none" xmlns="http://www.w3.org/2000/svg">
<path d="M6.95742 9.42875C6.95742 6.6554 9.22694 4.38589 12.0003 4.38589C14.7736 4.38589 17.0431 6.6554 17.0431 9.42875C17.0431 12.2021 14.7736 14.4716 12.0003 14.4716C9.22694 14.4716 6.95742 12.2021 6.95742 9.42875ZM8.47171 9.42875C8.47171 11.3697 10.0593 12.9573 12.0003 12.9573C13.9412 12.9573 15.5289 11.3697 15.5289 9.42875C15.5289 7.4878 13.9412 5.90017 12.0003 5.90017C10.0593 5.90017 8.47171 7.4878 8.47171 9.42875Z" fill="#667085" stroke="white" stroke-width="0.2"/>
<path d="M5.20081 21.7328L5.20084 21.7328L5.19833 21.7311C4.56174 21.3067 4.00973 20.8397 3.49958 20.3296C1.41736 18.2047 0.1 15.2297 0.1 12C0.1 5.41237 5.41237 0.1 12 0.1C18.5876 0.1 23.9 5.41237 23.9 12C23.9 15.2293 22.6258 18.1608 20.5018 20.3282C19.9475 20.8398 19.3944 21.3076 18.7997 21.7324C16.8869 23.0499 14.5496 23.8571 12 23.8571C9.44896 23.8571 7.11214 23.092 5.20081 21.7328ZM5.21865 19.7708L5.19953 19.8333L5.24921 19.8759C7.06627 21.4334 9.40334 22.3857 12 22.3857C14.5968 22.3857 16.9335 21.4333 18.7928 19.8767L18.8436 19.8341L18.8242 19.7708C18.3405 18.1878 16.8888 17.0429 15.1714 17.0429H8.87143C7.15407 17.0429 5.70235 18.1878 5.21865 19.7708ZM19.9248 18.4733L19.9945 18.6126L20.0922 18.4913C21.5201 16.7172 22.3857 14.4668 22.3857 12C22.3857 6.28763 17.7124 1.61429 12 1.61429C6.28763 1.61429 1.61429 6.28763 1.61429 12C1.61429 14.4669 2.48003 16.7179 3.9516 18.4924L4.05051 18.6117L4.11845 18.4724C4.95932 16.7486 6.7679 15.5286 8.87143 15.5286H15.1714C17.2324 15.5286 19.0413 16.7061 19.9248 18.4733Z" fill="#667085" stroke="white" stroke-width="0.2"/>
</svg>
