<svg width="17" height="17" viewBox="0 0 17 17" fill="none" xmlns="http://www.w3.org/2000/svg">
<path d="M2.125 4.95833C2.125 4.56713 2.44213 4.25 2.83333 4.25H14.1667C14.5579 4.25 14.875 4.56713 14.875 4.95833C14.875 5.34953 14.5579 5.66667 14.1667 5.66667H2.83333C2.44213 5.66667 2.125 5.34953 2.125 4.95833Z" fill="#858D9D"/>
<path d="M2.125 8.5C2.125 8.1088 2.44213 7.79167 2.83333 7.79167H14.1667C14.5579 7.79167 14.875 8.1088 14.875 8.5C14.875 8.8912 14.5579 9.20833 14.1667 9.20833H2.83333C2.44213 9.20833 2.125 8.8912 2.125 8.5Z" fill="#858D9D"/>
<path d="M2.83333 11.3333C2.44213 11.3333 2.125 11.6505 2.125 12.0417C2.125 12.4329 2.44213 12.75 2.83333 12.75H14.1667C14.5579 12.75 14.875 12.4329 14.875 12.0417C14.875 11.6505 14.5579 11.3333 14.1667 11.3333H2.83333Z" fill="#858D9D"/>
</svg>
