<svg width="12" height="12" viewBox="0 0 12 12" fill="none" xmlns="http://www.w3.org/2000/svg">
<path d="M11.3431 5.34307H6.65693V0.65693C6.65693 0.306598 6.35032 0 6 0C5.64968 0 5.34307 0.306609 5.34307 0.65693V5.34307H0.65693C0.306598 5.34307 0 5.64968 0 6C0 6.35032 0.306609 6.65693 0.65693 6.65693H5.34307V11.3431C5.34307 11.6934 5.64968 12 6 12C6.35032 12 6.65693 11.6934 6.65693 11.3431V6.65693H11.3431C11.6934 6.65693 12 6.35032 12 6C12 5.64968 11.6934 5.34307 11.3431 5.34307Z" fill="#767676"/>
</svg>
