<svg width="14" height="18" viewBox="0 0 14 18" fill="none" xmlns="http://www.w3.org/2000/svg">
<path d="M3.04621 0.925H11.0092C12.1594 0.925 13.075 1.88228 13.075 3.07194V16.5395C13.075 16.8019 12.8842 17.075 12.5576 17.075C12.4034 17.075 12.2716 17.0265 12.1786 16.9296C12.0859 16.8332 12.0401 16.6976 12.0401 16.5395V3.07194C12.0401 2.42222 11.5202 1.93831 10.9539 1.93831H3.04614C2.42903 1.93831 1.95986 2.47504 1.95986 3.07194V16.5395C1.95986 16.8019 1.76903 17.075 1.44243 17.075C1.28827 17.075 1.15647 17.0265 1.06344 16.9296C0.970784 16.8332 0.925 16.6976 0.925 16.5395V3.07194C0.925 1.87959 1.89848 0.925 3.04605 0.925H3.04621ZM4.04161 4.95378H10.1245C10.2628 4.95378 10.3796 5.02594 10.4595 5.12577C10.5392 5.22531 10.5865 5.35694 10.5865 5.48925C10.5865 5.75177 10.3957 6.02472 10.0691 6.02472H3.98625C3.72705 6.02472 3.46881 5.82174 3.46881 5.48925C3.46881 5.32471 3.53271 5.18878 3.63937 5.09482C3.74501 5.00176 3.88794 4.95378 4.04144 4.95378H4.04161ZM4.04161 7.88901H10.1245C10.3837 7.88901 10.6419 8.09199 10.6419 8.42449C10.6419 8.58259 10.5961 8.71816 10.5035 8.8146C10.4104 8.91142 10.2786 8.95996 10.1245 8.95996H4.04161C3.78242 8.95996 3.52418 8.75698 3.52418 8.42449C3.52418 8.26638 3.56996 8.13081 3.66262 8.03437C3.75565 7.93755 3.88744 7.88901 4.04161 7.88901ZM4.04161 10.8243H10.1245C10.3837 10.8243 10.6419 11.0273 10.6419 11.3598C10.6419 11.5179 10.5961 11.6534 10.5035 11.7499C10.4104 11.8467 10.2786 11.8952 10.1245 11.8952H4.04161C3.78242 11.8952 3.52418 11.6922 3.52418 11.3598C3.52418 11.2016 3.56996 11.0661 3.66262 10.9696C3.75565 10.8728 3.88744 10.8243 4.04161 10.8243Z" fill="#667085" stroke="#667085" stroke-width="0.15"/>
</svg>
