<svg width="14" height="18" viewBox="0 0 14 18" fill="none" xmlns="http://www.w3.org/2000/svg">
<path d="M1.95105 17.05H1.95125L12.0492 17.049L12.0498 17.049C12.6046 17.0427 13.0485 16.5714 13.05 15.9957V15.9955V4.47989C13.05 4.3388 12.997 4.20944 12.911 4.11394L12.911 4.11391L12.9097 4.11259L10.0261 1.14045L10.0258 1.14018L10.0229 1.13707L10.0219 1.13583L10.0221 1.13571L10.0196 1.13319C9.92627 1.02139 9.78827 0.95 9.63384 0.95L1.95124 0.95L1.95105 0.95C1.39663 0.952113 0.9515 1.42149 0.95 1.99584V1.99597L0.95 16.003L0.95 16.0031C0.951 16.578 1.39612 17.0479 1.95105 17.05ZM10.1013 5.01788H12.0188V15.9735H1.98212V2.02697H9.11464L9.10392 3.99013V3.99041L9.10391 3.99141L9.10393 3.99225C9.11343 4.55731 9.5537 5.01629 10.1012 5.01788H10.1013ZM3.23104 12.3111L3.23104 12.3111H3.23231H8.12237H8.12285V12.3112L8.12429 12.3111C8.2918 12.3063 8.42277 12.1639 8.42333 11.9928V11.9927V11.5257L8.42333 11.5255C8.42277 11.355 8.29234 11.2125 8.12477 11.2077L8.12477 11.2077H8.12333H3.22992V11.2077L3.22828 11.2077C3.06237 11.2131 2.93231 11.3545 2.93231 11.5247V11.5247V11.5247V11.5247V11.5247V11.5247V11.5247V11.5247V11.5247V11.5247V11.5247V11.5248V11.5248V11.5248V11.5248V11.5248V11.5248V11.5248V11.5248V11.5248V11.5248V11.5248V11.5248V11.5249V11.5249V11.5249V11.5249V11.5249V11.5249V11.5249V11.5249V11.5249V11.5249V11.5249V11.5249V11.5249V11.525V11.525V11.525V11.525V11.525V11.525V11.525V11.525V11.525V11.525V11.525V11.5251V11.5251V11.5251V11.5251V11.5251V11.5251V11.5251V11.5251V11.5251V11.5251V11.5251V11.5251V11.5252V11.5252V11.5252V11.5252V11.5252V11.5252V11.5252V11.5252V11.5252V11.5252V11.5252V11.5252V11.5252V11.5253V11.5253V11.5253V11.5253V11.5253V11.5253V11.5253V11.5253V11.5253V11.5253V11.5253V11.5253V11.5254V11.5254V11.5254V11.5254V11.5254V11.5254V11.5254V11.5254V11.5254V11.5254V11.5254V11.5254V11.5255V11.5255V11.5255V11.5255V11.5255V11.5255V11.5255V11.5255V11.5255V11.5255V11.5255V11.5256V11.5256V11.5256V11.5256V11.5256V11.5256V11.5256V11.5256V11.5256V11.5256V11.5256V11.5256V11.5257V11.5257L2.93231 11.9977L2.93232 11.9985C2.93512 12.1667 3.06506 12.3069 3.23104 12.3111ZM3.29111 9.93872H10.6203L10.6181 9.941L10.736 9.94022C10.9153 9.93904 11.059 9.79628 11.0761 9.61696L11.0763 9.61698V9.61223V9.15925V9.15775H11.0765L11.076 9.1528C11.0584 8.97546 10.9146 8.83335 10.7358 8.83275H10.7357C10.7299 8.83275 10.7241 8.83311 10.7201 8.83334L10.7113 8.83375H3.2948C3.28473 8.83275 3.27489 8.83275 3.26775 8.83275L3.26673 8.83275L3.26624 8.83276C3.08707 8.83453 2.94392 8.9766 2.92634 9.15535L2.9261 9.15533V9.16024V9.61273V9.61423H2.92587L2.92633 9.61902C2.94342 9.7966 3.08735 9.93854 3.2664 9.93972H3.26673C3.27243 9.93972 3.2781 9.93938 3.28206 9.93914L3.28226 9.93913L3.29111 9.93872ZM2.9761 9.16024C2.9914 9.00475 3.1152 8.88425 3.26673 8.88275V9.88972C3.1152 9.88872 2.99092 9.76823 2.9761 9.61423V9.61273V9.16024ZM10.7361 7.5668L10.7365 7.5668C10.9157 7.56561 11.0594 7.42352 11.077 7.2447L11.0772 7.24472V7.23981V6.78682V6.78532H11.0775L11.077 6.78039C11.0594 6.60264 10.9162 6.46042 10.7368 6.45983H10.7366C10.7309 6.45983 10.7253 6.46017 10.7213 6.4604L10.7211 6.46042L10.7122 6.46083H3.29517C3.2848 6.45982 3.27501 6.45983 3.26803 6.45983L3.26721 6.45983L3.26671 6.45983C3.08755 6.4616 2.9444 6.60368 2.92682 6.78242L2.92658 6.7824V6.78732V7.23981V7.24131H2.92635L2.92681 7.24608C2.94388 7.42409 3.08779 7.56621 3.26704 7.5668H3.26721C3.273 7.5668 3.27878 7.56644 3.28274 7.56621L3.29159 7.5658H10.7081C10.7181 7.5668 10.728 7.5668 10.7351 7.5668L10.7361 7.5668ZM2.97658 6.78732C2.99187 6.63182 3.11568 6.51133 3.26721 6.50983V7.5168C3.11568 7.5163 2.9914 7.3958 2.97658 7.24131V7.23981V6.78732ZM10.1412 2.76969L11.2819 3.94591H10.1353L10.1412 2.76969Z" fill="#667085" stroke="#667085" stroke-width="0.1"/>
</svg>
