<svg width="277" height="55" viewBox="0 0 277 55" fill="none" xmlns="http://www.w3.org/2000/svg">
<g clip-path="url(#clip0_1_194)">
<path d="M14.6395 27.3368C12.0696 27.3368 11.2748 29.2367 11.2208 30.3674H17.9193C17.5103 28.2445 16.5302 27.3368 14.6395 27.3368ZM26.1998 22.9371C23.5219 19.5142 19.3392 17.3144 14.6549 17.3144C6.55959 17.3144 0 23.8524 0 31.9212C0 39.9899 6.55959 46.528 14.6549 46.528C19.3469 46.528 23.5219 44.3282 26.1998 40.9053C24.2551 38.4285 23.0898 35.3056 23.0898 31.9212C23.0975 28.5291 24.2628 25.4139 26.1998 22.9371ZM22.2177 32.9134H11.1359C11.2516 35.4518 12.5635 36.6132 14.9096 36.6132C16.5996 36.6132 17.9733 35.6287 18.2434 34.721H21.9553C20.7669 38.1747 18.2434 39.6438 14.7629 39.6438C9.92428 39.6438 6.9223 36.4825 6.9223 31.952C6.9223 27.5676 10.1018 24.237 14.7629 24.237C19.9875 24.2293 22.5187 28.4137 22.2177 32.9134Z" fill="white"/>
<path d="M54.0124 31.9212C54.0124 39.9899 47.4528 46.528 39.3575 46.528C31.2699 46.528 24.7026 39.9899 24.7026 31.9212C24.7026 23.8524 31.2622 17.3144 39.3575 17.3144C47.4528 17.3144 54.0124 23.8524 54.0124 31.9212ZM40.9318 25.0601C39.319 25.0601 37.652 25.7677 36.6874 27.2292H36.6102V25.4139H32.9832V38.4747H36.9652V31.6289C36.9652 29.0906 37.7678 28.0599 39.7511 28.0599C41.3717 28.0599 42.0277 28.9444 42.0277 31.1059V38.4823H46.0097V30.4367C46.002 27.2061 44.9834 25.0601 40.9318 25.0601Z" fill="white"/>
<path d="M77.7659 5.79197C77.7659 4.22283 78.3447 2.86906 79.51 1.72298C80.6752 0.576889 82.0566 0 83.6618 0C85.2361 0 86.5943 0.576889 87.7442 1.72298C88.894 2.86906 89.4728 4.23052 89.4728 5.79197C89.4728 7.39187 88.894 8.75333 87.7442 9.88403C86.5943 11.0147 85.2284 11.5839 83.6618 11.5839C82.0566 11.5839 80.6752 11.0147 79.51 9.88403C78.3524 8.75333 77.7659 7.39187 77.7659 5.79197ZM79.9112 17.5913H87.4278V53.5199H79.9112V17.5913Z" fill="white"/>
<path d="M110.842 17.5913V24.9985C112.532 22.0372 114.183 19.8988 115.804 18.5758C117.417 17.2528 119.523 16.5913 122.116 16.5913C122.842 16.5913 123.891 16.7683 125.265 17.1144L122.95 24.6909C121.491 24.3986 120.534 24.2524 120.064 24.2524C117.501 24.2524 115.348 25.1447 113.62 26.9292C111.883 28.7137 111.019 30.9443 111.019 33.6134V53.5199H103.41V17.5913H110.842Z" fill="white"/>
<path d="M131.94 35.4056C131.94 30.4982 133.885 26.1369 137.775 22.3218C141.664 18.5066 146.125 16.5913 151.164 16.5913C156.35 16.5913 160.88 18.4682 164.754 22.2295C168.628 25.9908 170.565 30.3828 170.565 35.4056C170.565 40.4592 168.666 44.9051 164.862 48.751C161.057 52.5969 156.666 54.5199 151.689 54.5199C146.356 54.5199 141.734 52.62 137.813 48.8125C133.901 45.0204 131.94 40.5438 131.94 35.4056ZM163.226 35.4287C163.226 32.375 162.061 29.7213 159.73 27.4676C157.399 25.2139 154.629 24.0832 151.426 24.0832C148.131 24.0832 145.299 25.2216 142.93 27.5061C140.553 29.7906 139.372 32.5135 139.372 35.6902C139.372 38.7131 140.576 41.3668 142.976 43.6282C145.376 45.8973 148.2 47.028 151.434 47.028C154.583 47.028 157.33 45.8665 159.691 43.5359C162.053 41.2207 163.226 38.5131 163.226 35.4287Z" fill="white"/>
<path d="M176.685 35.4056C176.685 30.4982 178.629 26.1369 182.519 22.3218C186.408 18.5066 190.869 16.5913 195.908 16.5913C201.094 16.5913 205.624 18.4682 209.498 22.2295C213.372 25.9908 215.309 30.3828 215.309 35.4056C215.309 40.4592 213.411 44.9051 209.606 48.751C205.801 52.5969 201.41 54.5199 196.433 54.5199C191.1 54.5199 186.478 52.62 182.557 48.8125C178.645 45.0204 176.685 40.5438 176.685 35.4056ZM207.97 35.4287C207.97 32.375 206.805 29.7213 204.474 27.4676C202.144 25.2139 199.373 24.0832 196.17 24.0832C192.875 24.0832 190.043 25.2216 187.674 27.5061C185.305 29.7906 184.116 32.5135 184.116 35.6902C184.116 38.7131 185.32 41.3668 187.72 43.6282C190.12 45.8973 192.945 47.028 196.178 47.028C199.327 47.028 202.074 45.8665 204.436 43.5359C206.789 41.2207 207.97 38.5131 207.97 35.4287Z" fill="white"/>
<path d="M229.47 7.14574H237.071V17.599H244.588V24.5216H237.071V53.5276H229.47V24.5216H223.481V17.5067H229.47V7.14574Z" fill="white"/>
<path d="M276.606 21.8603L271.536 26.3061C270.224 25.3754 269.09 24.6755 268.125 24.1909C267.161 23.714 266.026 23.4755 264.714 23.4755C261.627 23.4755 260.084 24.6062 260.084 26.8753C260.084 28.4983 262.044 30.0828 265.964 31.6135C269.885 33.1442 272.701 34.821 274.422 36.6517C276.143 38.4824 277 40.6822 277 43.2667C277 46.2819 275.765 48.9125 273.288 51.1662C270.811 53.4122 267.901 54.5353 264.552 54.5353C259.451 54.5353 255.276 52.1815 252.012 47.4818L258 44.6051C260.099 46.6357 262.283 47.651 264.552 47.651C266.126 47.651 267.5 47.2203 268.681 46.3665C269.862 45.5127 270.448 44.5128 270.448 43.3821C270.448 41.3822 268.38 39.5746 264.243 37.9747C260.107 36.3748 257.244 34.7518 255.654 33.1134C254.064 31.4751 253.27 29.4521 253.27 27.0446C253.27 24.0524 254.396 21.568 256.657 19.5835C258.911 17.599 261.751 16.599 265.154 16.599C268.565 16.5913 272.385 18.3528 276.606 21.8603Z" fill="white"/>
</g>
<defs>
<clipPath id="clip0_1_194">
<rect width="277" height="54.5276" fill="white"/>
</clipPath>
</defs>
</svg>
