<?xml version="1.0" encoding="utf-8"?>
<!-- Generator: Adobe Illustrator 25.1.0, SVG Export Plug-In . SVG Version: 6.00 Build 0)  -->
<svg version="1.1" id="レイヤー_1" xmlns="http://www.w3.org/2000/svg" xmlns:xlink="http://www.w3.org/1999/xlink" x="0px"
	 y="0px" viewBox="0 0 358.67 70.89" style="enable-background:new 0 0 358.67 70.89;" xml:space="preserve">
<style type="text/css">
	.st0{fill:#374060;}
	.st1{fill:#FFFFFF;}
	.st2{fill:#0C3484;}
	.st3{fill:#17B1E6;}
</style>
<g>
	<g>
		<path class="st0" d="M100.5,7.53c0-2.04,0.75-3.8,2.26-5.29c1.51-1.49,3.3-2.24,5.38-2.24c2.04,0,3.8,0.75,5.29,2.24
			c1.49,1.49,2.24,3.26,2.24,5.29c0,2.08-0.75,3.85-2.24,5.32c-1.49,1.47-3.26,2.21-5.29,2.21c-2.08,0-3.87-0.74-5.38-2.21
			C101.25,11.38,100.5,9.61,100.5,7.53z M103.27,22.87h9.74v46.71h-9.74V22.87z"/>
		<path class="st0" d="M143.35,22.87v9.63c2.19-3.85,4.33-6.63,6.43-8.35c2.09-1.72,4.82-2.58,8.18-2.58c0.94,0,2.3,0.23,4.08,0.68
			l-3,9.85c-1.89-0.38-3.13-0.57-3.74-0.57c-3.32,0-6.11,1.16-8.35,3.48c-2.25,2.32-3.37,5.22-3.37,8.69v25.88h-9.85V22.87H143.35z"
			/>
		<path class="st0" d="M170.7,46.03c0-6.38,2.52-12.05,7.56-17.01c5.04-4.96,10.82-7.45,17.35-7.45c6.72,0,12.59,2.44,17.61,7.33
			c5.02,4.89,7.53,10.6,7.53,17.13c0,6.57-2.46,12.35-7.39,17.35c-4.93,5-10.62,7.5-17.07,7.5c-6.91,0-12.9-2.47-17.98-7.42
			C173.24,58.53,170.7,52.71,170.7,46.03z M211.24,46.06c0-3.97-1.51-7.42-4.53-10.35c-3.02-2.93-6.61-4.4-10.76-4.4
			c-4.27,0-7.94,1.48-11.01,4.45c-3.08,2.97-4.61,6.51-4.61,10.64c0,3.93,1.56,7.38,4.67,10.32c3.11,2.95,6.77,4.42,10.96,4.42
			c4.08,0,7.64-1.51,10.7-4.54C209.71,53.59,211.24,50.07,211.24,46.06z"/>
		<path class="st0" d="M228.68,46.03c0-6.38,2.52-12.05,7.56-17.01c5.04-4.96,10.82-7.45,17.35-7.45c6.72,0,12.59,2.44,17.61,7.33
			c5.02,4.89,7.53,10.6,7.53,17.13c0,6.57-2.46,12.35-7.39,17.35c-4.93,5-10.62,7.5-17.07,7.5c-6.91,0-12.9-2.47-17.98-7.42
			C231.22,58.53,228.68,52.71,228.68,46.03z M269.22,46.06c0-3.97-1.51-7.42-4.53-10.35c-3.02-2.93-6.61-4.4-10.76-4.4
			c-4.27,0-7.94,1.48-11.01,4.45s-4.61,6.51-4.61,10.64c0,3.93,1.56,7.38,4.67,10.32c3.11,2.95,6.77,4.42,10.96,4.42
			c4.08,0,7.64-1.51,10.7-4.54C267.69,53.59,269.22,50.07,269.22,46.06z"/>
		<path class="st0" d="M297.07,9.29h9.85v13.59h9.74v9h-9.74v37.71h-9.85V31.88h-7.76v-9.12h7.76V9.29z"/>
		<path class="st0" d="M358.16,28.42l-6.57,5.78c-1.7-1.21-3.17-2.12-4.42-2.75c-1.25-0.62-2.72-0.93-4.42-0.93c-4,0-6,1.47-6,4.42
			c0,2.11,2.54,4.17,7.62,6.16c5.08,1.99,8.73,4.17,10.96,6.55c2.23,2.38,3.34,5.24,3.34,8.6c0,3.92-1.6,7.34-4.81,10.27
			c-3.21,2.92-6.98,4.38-11.32,4.38c-6.61,0-12.02-3.06-16.25-9.17l7.76-3.74c2.72,2.64,5.55,3.96,8.49,3.96
			c2.04,0,3.82-0.56,5.35-1.67c1.53-1.11,2.29-2.41,2.29-3.88c0-2.6-2.68-4.95-8.04-7.03c-5.36-2.08-9.07-4.19-11.13-6.32
			c-2.06-2.13-3.09-4.76-3.09-7.89c0-3.89,1.46-7.12,4.39-9.7c2.92-2.58,6.6-3.88,11.01-3.88S352.68,23.86,358.16,28.42z"/>
	</g>
	<g>
		<rect x="7.01" y="30.2" class="st1" width="54.55" height="22.34"/>
		<g>
			<path class="st2" d="M19.5,21.98C8.73,21.98,0,30.71,0,41.48c0,10.77,8.73,19.5,19.5,19.5c10.76,0,19.49-8.73,19.49-19.5
				C38.99,30.71,30.26,21.98,19.5,21.98 M29.56,42.8H14.81c0.16,3.4,1.9,4.94,5.02,4.94c2.25,0,4.07-1.32,4.42-2.53h4.94
				c-1.58,4.61-4.94,6.57-9.57,6.57c-6.44,0-10.43-4.22-10.43-10.26c0-5.85,4.23-10.3,10.43-10.3C26.59,31.21,29.95,36.8,29.56,42.8
				 M14.93,39.4h8.9c-0.54-2.83-1.84-4.04-4.35-4.04C16.06,35.36,15.01,37.9,14.93,39.4"/>
			<path class="st3" d="M69.71,41.48c0,10.77-8.73,19.5-19.49,19.5c-10.77,0-19.49-8.73-19.49-19.5c0-10.77,8.73-19.5,19.49-19.5
				C60.99,21.98,69.71,30.71,69.71,41.48 M52.31,32.32c-2.14,0-4.36,0.94-5.65,2.9h-0.11v-2.43h-4.83v17.44h5.3v-9.14
				c0-3.39,1.07-4.77,3.71-4.77c2.15,0,3.03,1.18,3.03,4.06v9.85h5.3V39.5C59.06,35.19,57.7,32.32,52.31,32.32"/>
		</g>
	</g>
</g>
</svg>
